<?xml version="1.0" encoding="utf-8"?>
<!-- Generator: Adobe Illustrator 21.0.0, SVG Export Plug-In . SVG Version: 6.00 Build 0)  -->
<svg version="1.1" id="Layer_1" xmlns="http://www.w3.org/2000/svg" xmlns:xlink="http://www.w3.org/1999/xlink" x="0px" y="0px"
	 viewBox="0 0 125 24.5" style="enable-background:new 0 0 125 24.5;" xml:space="preserve" width="200px">
<style type="text/css">
	.st0{fill:#FFFFFF;}
</style>
<path class="st0" d="M28.3,4.2h1.1c0.2,0,0.4,0,0.5,0s0.3-0.1,0.4-0.1c0.1-0.1,0.2-0.2,0.2-0.3c0.1-0.1,0.1-0.3,0.1-0.5
	s0-0.4-0.1-0.5s-0.1-0.2-0.2-0.3s-0.2-0.1-0.4-0.1c-0.2,0-0.3,0-0.5,0h-1.1V4.2z M28.3,6.9h-0.6V1.7h1.7c0.3,0,0.6,0,0.8,0.1
	c0.2,0,0.4,0.1,0.5,0.2s0.2,0.3,0.3,0.4c0.1,0.2,0.1,0.4,0.1,0.7c0,0.4-0.1,0.8-0.3,1c-0.2,0.2-0.5,0.4-0.8,0.4l1.2,2.3h-0.6
	l-1.2-2.3h-1.2v2.4H28.3z M35.4,6.9V6.5h-2.6V4.6H35V4.1h-2.2V2.2h2.6V1.7h-3.1v5.2C32.3,6.9,35.4,6.9,35.4,6.9z M37.1,4.3h1
	c0.2,0,0.4,0,0.5,0c0.2,0,0.3-0.1,0.4-0.2c0.1-0.1,0.2-0.2,0.2-0.3c0.1-0.1,0.1-0.3,0.1-0.6c0-0.2,0-0.4-0.1-0.5S39.1,2.5,39,2.4
	c-0.1-0.1-0.2-0.1-0.4-0.2c-0.2,0-0.3,0-0.5,0h-1V4.3z M37.1,6.9h-0.6V1.7h1.6c0.3,0,0.6,0,0.8,0.1s0.4,0.1,0.5,0.3
	c0.1,0.1,0.2,0.3,0.3,0.5s0.1,0.4,0.1,0.7c0,0.6-0.1,1-0.4,1.2c-0.3,0.2-0.7,0.4-1.3,0.4H37v2H37.1z M44.2,1.7h-0.6v3.4
	c0,0.5-0.1,0.8-0.3,1.1c-0.2,0.2-0.5,0.3-0.9,0.3s-0.7-0.1-0.9-0.3c-0.2-0.2-0.3-0.6-0.3-1.1V1.7h-0.6v3.5c0,0.6,0.2,1.1,0.5,1.4
	S41.8,7,42.4,7c0.3,0,0.5,0,0.8-0.1c0.2-0.1,0.4-0.2,0.6-0.3C43.9,6.4,44,6.2,44.1,6s0.1-0.5,0.1-0.9C44.2,5.1,44.2,1.7,44.2,1.7z
	 M48.4,5.5c0-0.3-0.1-0.6-0.3-0.7c-0.2-0.2-0.4-0.2-0.8-0.2h-1.2v2h1.2c0.4,0,0.6-0.1,0.8-0.2C48.3,6.1,48.4,5.8,48.4,5.5 M48.3,3.1
	c0-0.4-0.1-0.6-0.3-0.7c-0.2-0.1-0.4-0.2-0.8-0.2H46v1.9h1.2c0.3,0,0.6-0.1,0.8-0.2C48.2,3.7,48.3,3.5,48.3,3.1 M48.9,5.5
	c0,0.5-0.1,0.8-0.4,1.1c-0.3,0.2-0.7,0.3-1.3,0.3h-1.7V1.7h1.7c0.6,0,1,0.1,1.3,0.3s0.4,0.6,0.4,1c0,0.6-0.2,1-0.6,1.2l0,0
	c0.3,0.1,0.4,0.2,0.6,0.4C48.9,4.9,48.9,5.2,48.9,5.5 M53,6.9V6.5h-2.4V1.7H50v5.2C50,6.9,53,6.9,53,6.9z M53.9,6.9h0.6V1.7h-0.6
	V6.9z M55.9,6.9h0.6V4.5H57l1.7,2.4h0.7l-1.9-2.7l1.9-2.5h-0.6L57,4h-0.5V1.7h-0.6V6.9z M60.8,5.2h1.9l-0.9-3l0,0L60.8,5.2z
	 M62.9,5.7h-2.2L60.3,7h-0.6l1.7-5.2h0.7L63.8,7h-0.6L62.9,5.7z M69.3,5.6c0-0.2,0-0.4-0.1-0.6c0-0.2-0.1-0.3-0.2-0.4
	s-0.3-0.2-0.5-0.3C68.3,4.2,68,4.1,67.7,4c-0.2,0-0.3-0.1-0.4-0.2c-0.1-0.1-0.2-0.1-0.3-0.2c-0.1-0.1-0.1-0.2-0.2-0.3
	c0-0.1-0.1-0.2-0.1-0.4c0-0.3,0.1-0.5,0.2-0.7C67.1,2.1,67.3,2,67.7,2c0.2,0,0.4,0,0.6,0.1c0.2,0,0.4,0.1,0.6,0.2L69,1.8
	c-0.2-0.1-0.4-0.1-0.6-0.2c-0.2,0-0.5-0.1-0.7-0.1c-0.6,0-1,0.1-1.2,0.4c-0.3,0.2-0.4,0.6-0.4,1c0,0.2,0,0.4,0.1,0.6
	s0.1,0.3,0.3,0.4C66.6,4,66.8,4.1,67,4.2c0.2,0.1,0.4,0.2,0.6,0.2c0.2,0.1,0.4,0.1,0.5,0.2s0.3,0.1,0.3,0.2c0.1,0.1,0.1,0.2,0.2,0.3
	c0,0.1,0,0.2,0,0.4c0,0.2,0,0.3-0.1,0.5c0,0.1-0.1,0.2-0.2,0.3c-0.1,0.1-0.2,0.1-0.3,0.1c-0.1,0-0.3,0-0.5,0s-0.5,0-0.7-0.1
	c-0.2,0-0.5-0.1-0.7-0.2L66,6.6c0.2,0.1,0.4,0.1,0.7,0.2C67,7,67.3,7,67.6,7c0.3,0,0.6,0,0.8-0.1c0.2-0.1,0.4-0.1,0.5-0.3
	c0.1-0.1,0.2-0.3,0.3-0.5C69.3,6.1,69.3,5.8,69.3,5.6 M73.3,6.9V6.5h-2.4V1.7h-0.6v5.2C70.3,6.9,73.3,6.9,73.3,6.9z M75.6,6.5
	c0.3,0,0.5,0,0.7-0.1s0.3-0.2,0.4-0.4c0.1-0.2,0.2-0.4,0.2-0.7c0-0.3,0.1-0.6,0.1-1s0-0.7-0.1-1c0-0.3-0.1-0.5-0.2-0.7
	s-0.3-0.3-0.4-0.4c-0.2-0.1-0.4-0.1-0.7-0.1c-0.3,0-0.5,0-0.7,0.1s-0.3,0.2-0.4,0.4S74.3,3,74.3,3.3s-0.1,0.6-0.1,1s0,0.7,0.1,1
	c0,0.3,0.1,0.5,0.2,0.7s0.3,0.3,0.4,0.4C75.2,6.5,75.4,6.5,75.6,6.5 M75.7,7c-0.3,0-0.6,0-0.9-0.1s-0.5-0.2-0.6-0.4
	C74,6.2,73.9,6,73.8,5.6c-0.1-0.3-0.1-0.8-0.1-1.3s0-0.9,0.1-1.3c0.1-0.3,0.2-0.6,0.4-0.8c0.2-0.2,0.4-0.4,0.6-0.5
	c0.3-0.1,0.5-0.1,0.9-0.1c0.3,0,0.6,0,0.9,0.1S77,2,77.2,2.3c0.2,0.2,0.3,0.5,0.4,0.8s0.1,0.8,0.1,1.3s0,0.9-0.1,1.3
	c-0.1,0.3-0.2,0.6-0.4,0.8c-0.2,0.2-0.4,0.4-0.6,0.4C76.3,7,76,7,75.7,7 M79.7,6.9h0.8L82,1.7h-0.5l-1.4,4.7l0,0l-1.4-4.7h-0.6
	L79.7,6.9z M85.9,6.9V6.5h-2.6V4.6h2.2V4.1h-2.2V2.2h2.6V1.7h-3.1v5.2C82.8,6.9,85.9,6.9,85.9,6.9z M89.9,6.9h0.8V1.7h-0.5v4.6l0,0
	l-2.3-4.6H87v5.2h0.5V2.3l0,0L89.9,6.9z M92.1,6.9h0.6V1.7h-0.6V6.9z M94.3,1.7v4.8c0,0.2,0,0.3,0,0.5c0,0.1-0.1,0.3-0.1,0.4
	c-0.1,0.1-0.2,0.2-0.3,0.3c-0.1,0.1-0.2,0.1-0.4,0.2l0.1,0.5C93.8,8.2,94,8.1,94.2,8c0.2-0.1,0.3-0.2,0.4-0.4
	c0.1-0.1,0.2-0.3,0.2-0.5s0.1-0.4,0.1-0.7V1.7H94.3z M96.7,5.2h1.9l-0.9-3l0,0L96.7,5.2z M98.7,5.7h-2.2L96.1,7h-0.6l1.7-5.2H98
	L99.7,7h-0.6L98.7,5.7z M27.6,10.5v5.2h0.9v-3.8l0,0l0.9,2h0.9l0.9-2l0,0v3.8h0.9v-5.2h-1.2l-1,2.4l0,0l-1.1-2.4H27.6z M33.2,15.7h1
	v-5.2h-1V15.7z M38,15.7h1.3v-5.2h-0.9v4l0,0l-1.8-4h-1.3v5.2h0.9v-3.9l0,0L38,15.7z M40.4,15.7h1v-5.2h-1V15.7z M45.8,14.1
	c0-0.2,0-0.4-0.1-0.6c-0.1-0.2-0.1-0.3-0.2-0.4c-0.1-0.1-0.3-0.2-0.4-0.3c-0.2-0.1-0.4-0.2-0.7-0.2c-0.2,0-0.3-0.1-0.4-0.1
	c-0.1,0-0.2-0.1-0.3-0.2c-0.1-0.1-0.1-0.1-0.2-0.2c0-0.1-0.1-0.2-0.1-0.3s0-0.2,0.1-0.3c0-0.1,0.1-0.1,0.2-0.2
	c0.1,0,0.1-0.1,0.2-0.1c0.1,0,0.2,0,0.3,0c0.2,0,0.4,0,0.6,0.1c0.2,0,0.4,0.1,0.6,0.2l0.1-0.8c-0.2-0.1-0.5-0.2-0.7-0.2
	s-0.5-0.1-0.7-0.1c-0.6,0-1,0.1-1.3,0.3s-0.5,0.6-0.5,1.2c0,0.3,0,0.5,0.1,0.6c0.1,0.2,0.2,0.3,0.3,0.4c0.1,0.1,0.3,0.2,0.5,0.3
	s0.4,0.2,0.6,0.2c0.2,0,0.3,0.1,0.4,0.1c0.1,0,0.2,0.1,0.3,0.2c0.1,0.1,0.1,0.1,0.1,0.2s0,0.2,0,0.3s0,0.2-0.1,0.3
	c0,0.1-0.1,0.2-0.2,0.2c-0.1,0-0.2,0.1-0.3,0.1s-0.2,0-0.3,0c-0.2,0-0.5,0-0.7-0.1c-0.2,0-0.5-0.1-0.7-0.2l-0.2,0.9
	c0.2,0.1,0.4,0.1,0.7,0.2c0.2,0,0.5,0.1,0.8,0.1s0.6,0,0.9-0.1c0.2-0.1,0.4-0.2,0.6-0.3c0.2-0.1,0.3-0.3,0.3-0.5
	C45.7,14.7,45.8,14.4,45.8,14.1 M49.8,11.3v-0.9H46v0.9h1.4v4.3h1v-4.3H49.8z M53.1,12c0-0.3-0.1-0.5-0.2-0.6
	c-0.1-0.1-0.4-0.1-0.7-0.1h-0.7v1.5h0.7c0.2,0,0.3,0,0.4,0c0.1,0,0.2-0.1,0.3-0.1c0.1-0.1,0.1-0.1,0.1-0.2
	C53,12.3,53.1,12.2,53.1,12 M54.1,12c0,0.4-0.1,0.7-0.2,0.9c-0.1,0.2-0.3,0.4-0.6,0.5l1.1,2.2h-1.2l-1-2h-0.8v2h-1v-5.2h1.8
	c0.4,0,0.6,0,0.9,0.1c0.2,0.1,0.4,0.2,0.6,0.3c0.1,0.1,0.2,0.3,0.3,0.5C54.1,11.5,54.1,11.8,54.1,12 M58.3,14.1c0-0.2,0-0.4-0.1-0.6
	c-0.1-0.2-0.1-0.3-0.2-0.4c-0.1-0.1-0.3-0.2-0.4-0.3c-0.2-0.1-0.4-0.2-0.7-0.2c-0.2,0-0.3-0.1-0.4-0.1c-0.1,0-0.2-0.1-0.3-0.2
	c-0.1-0.1-0.1-0.1-0.2-0.2c0-0.1-0.1-0.2-0.1-0.3s0-0.2,0.1-0.3c0-0.1,0.1-0.1,0.2-0.2c0.1,0,0.1-0.1,0.2-0.1c0.1,0,0.2,0,0.3,0
	c0.2,0,0.4,0,0.6,0.1c0.2,0,0.4,0.1,0.6,0.2l0.1-0.8c-0.2-0.1-0.5-0.2-0.7-0.2s-0.5-0.1-0.7-0.1c-0.6,0-1,0.1-1.3,0.3
	s-0.5,0.6-0.5,1.2c0,0.3,0,0.5,0.1,0.6c0.1,0.2,0.2,0.3,0.3,0.4c0.1,0.1,0.3,0.2,0.5,0.3s0.4,0.2,0.6,0.2c0.2,0,0.3,0.1,0.4,0.1
	c0.1,0,0.2,0.1,0.3,0.2c0.1,0.1,0.1,0.1,0.1,0.2s0,0.2,0,0.3s0,0.2-0.1,0.3c0,0.1-0.1,0.2-0.2,0.2c-0.1,0-0.2,0.1-0.3,0.1
	s-0.2,0-0.3,0c-0.2,0-0.5,0-0.7-0.1c-0.2,0-0.5-0.1-0.7-0.2l-0.2,0.9c0.2,0.1,0.4,0.1,0.7,0.2c0.2,0,0.5,0.1,0.8,0.1s0.6,0,0.9-0.1
	c0.2-0.1,0.4-0.2,0.6-0.3c0.2-0.1,0.3-0.3,0.3-0.5C58.3,14.7,58.3,14.4,58.3,14.1 M62.3,11.3v-0.9h-3.7v0.9H60v4.3h1v-4.3H62.3z
	 M66.9,10.5h-1l-1.1,4.3l0,0l-1.1-4.3h-1.1l1.4,5.2h1.5L66.9,10.5z M69.4,14.9c0.2,0,0.4,0,0.5-0.1s0.2-0.2,0.3-0.3
	c0.1-0.1,0.1-0.3,0.2-0.6c0-0.2,0-0.5,0-0.9c0-0.3,0-0.6,0-0.9c0-0.2-0.1-0.4-0.2-0.6c-0.1-0.1-0.2-0.2-0.3-0.3
	c-0.1-0.1-0.3-0.1-0.5-0.1s-0.4,0-0.5,0.1s-0.2,0.2-0.3,0.3c-0.1,0.1-0.1,0.3-0.2,0.6c0,0.2,0,0.5,0,0.9c0,0.3,0,0.6,0,0.9
	c0,0.2,0.1,0.4,0.2,0.6c0.1,0.1,0.2,0.2,0.3,0.3C69,14.8,69.2,14.9,69.4,14.9 M69.4,15.7c-0.4,0-0.7,0-0.9-0.1
	c-0.3-0.1-0.5-0.2-0.7-0.4s-0.3-0.5-0.4-0.8s-0.1-0.8-0.1-1.3s0-1,0.1-1.3s0.2-0.6,0.4-0.8c0.2-0.2,0.4-0.4,0.7-0.4
	c0.3-0.1,0.6-0.1,0.9-0.1c0.4,0,0.7,0,0.9,0.1c0.3,0.1,0.5,0.2,0.7,0.4s0.3,0.5,0.4,0.8s0.1,0.8,0.1,1.3s0,1-0.1,1.3
	S71.2,15,71,15.2c-0.2,0.2-0.4,0.3-0.7,0.4C70.1,15.7,69.8,15.7,69.4,15.7 M77.2,15.7v-0.9h-2.4l2.4-3.5v-0.9h-3.3v0.9h2.2l-2.3,3.4
	v0.9L77.2,15.7L77.2,15.7z M79.2,13.7h1.3l-0.6-2.3l0,0L79.2,13.7z M80.7,14.6H79l-0.3,1.1h-1.1l1.6-5.2h1.4l1.6,5.2H81L80.7,14.6z
	 M84.3,15.7h1v-2.3h0.3l1.4,2.3h1.2L86.4,13l1.7-2.5H87l-1.4,2.1h-0.3v-2.1h-1C84.3,10.5,84.3,15.7,84.3,15.7z M88.8,10.5v5.2h0.9
	v-3.8l0,0l0.9,2h0.9l0.9-2l0,0v3.8h0.9v-5.2h-1.2l-1,2.4l0,0L90,10.5H88.8z M97.7,15.7v-0.9h-2.3v-1.3h2v-0.9h-2v-1.3h2.3v-0.9h-3.3
	v5.2L97.7,15.7L97.7,15.7z M101.9,11.3v-0.9h-3.7v0.9h1.4v4.3h1v-4.3H101.9z M102.6,15.7h1v-5.2h-1V15.7z M104.3,17.2
	c0.3-0.1,0.6-0.2,0.8-0.3c0.2-0.1,0.4-0.3,0.5-0.4c0.1-0.2,0.2-0.4,0.3-0.6c0.1-0.2,0.1-0.5,0.1-0.8v-4.7h-1v4.7c0,0.2,0,0.3,0,0.4
	c0,0.1-0.1,0.2-0.1,0.3c-0.1,0.1-0.2,0.2-0.3,0.2c-0.1,0.1-0.3,0.1-0.4,0.2L104.3,17.2z M110.2,14.1c0-0.2,0-0.4-0.1-0.6
	c-0.1-0.2-0.1-0.3-0.2-0.4c-0.1-0.1-0.3-0.2-0.4-0.3c-0.2-0.1-0.4-0.2-0.7-0.2c-0.2,0-0.3-0.1-0.4-0.1s-0.2-0.1-0.3-0.2
	c-0.1-0.1-0.1-0.1-0.2-0.2c0-0.1-0.1-0.2-0.1-0.3s0-0.2,0.1-0.3c0-0.1,0.1-0.1,0.2-0.2c0.1,0,0.1-0.1,0.2-0.1s0.2,0,0.3,0
	c0.2,0,0.4,0,0.6,0.1c0.2,0,0.4,0.1,0.6,0.2l0.1-0.8c-0.2-0.1-0.5-0.2-0.7-0.2s-0.5-0.1-0.7-0.1c-0.6,0-1,0.1-1.3,0.3
	s-0.5,0.6-0.5,1.2c0,0.3,0,0.5,0.1,0.6c0.1,0.2,0.2,0.3,0.3,0.4c0.1,0.1,0.3,0.2,0.5,0.3s0.4,0.2,0.6,0.2s0.3,0.1,0.4,0.1
	s0.2,0.1,0.3,0.2c0.1,0.1,0.1,0.1,0.1,0.2s0,0.2,0,0.3s0,0.2-0.1,0.3c0,0.1-0.1,0.2-0.2,0.2s-0.2,0.1-0.3,0.1c-0.1,0-0.2,0-0.3,0
	c-0.2,0-0.5,0-0.7-0.1c-0.2,0-0.5-0.1-0.7-0.2l-0.2,0.9c0.2,0.1,0.4,0.1,0.7,0.2c0.2,0,0.5,0.1,0.8,0.1s0.6,0,0.9-0.1
	c0.2-0.1,0.4-0.2,0.6-0.3s0.3-0.3,0.3-0.5C110.2,14.7,110.2,14.4,110.2,14.1 M114.2,11.3v-0.9h-3.7v0.9h1.4v4.3h1v-4.3H114.2z
	 M118.8,10.5h-1l-1.1,4.3l0,0l-1.1-4.3h-1.1l1.4,5.2h1.5L118.8,10.5z M121.3,14.9c0.2,0,0.4,0,0.5-0.1s0.2-0.2,0.3-0.3
	c0.1-0.1,0.1-0.3,0.2-0.6c0-0.2,0-0.5,0-0.9c0-0.3,0-0.6,0-0.9c0-0.2-0.1-0.4-0.2-0.6c-0.1-0.1-0.2-0.2-0.3-0.3
	c-0.1-0.1-0.3-0.1-0.5-0.1s-0.4,0-0.5,0.1s-0.2,0.2-0.3,0.3c-0.1,0.1-0.1,0.3-0.2,0.6c0,0.2,0,0.5,0,0.9c0,0.3,0,0.6,0,0.9
	c0,0.2,0.1,0.4,0.2,0.6c0.1,0.1,0.2,0.2,0.3,0.3C120.9,14.8,121.1,14.9,121.3,14.9 M121.3,15.7c-0.4,0-0.7,0-0.9-0.1
	c-0.3-0.1-0.5-0.2-0.7-0.4s-0.3-0.5-0.4-0.8s-0.1-0.8-0.1-1.3s0-1,0.1-1.3s0.2-0.6,0.4-0.8c0.2-0.2,0.4-0.4,0.7-0.4
	c0.3-0.1,0.6-0.1,0.9-0.1c0.4,0,0.7,0,0.9,0.1c0.3,0.1,0.5,0.2,0.7,0.4s0.3,0.5,0.4,0.8s0.1,0.8,0.1,1.3s0,1-0.1,1.3
	s-0.2,0.6-0.4,0.8c-0.2,0.2-0.4,0.3-0.7,0.4C122,15.7,121.7,15.7,121.3,15.7 M125,15.5v-0.9h-1.1v1l0.3,0.1l-0.2,0.9l0.6,0.2
	L125,15.5z M30.5,24.3c0.3-0.1,0.5-0.2,0.7-0.3v-2.4h-0.9v1.9c-0.1,0-0.2,0-0.3,0.1c-0.1,0-0.2,0-0.3,0c-0.2,0-0.4,0-0.6-0.1
	c-0.2,0-0.3-0.1-0.4-0.3c-0.1-0.1-0.2-0.3-0.2-0.6c0-0.2-0.1-0.5-0.1-0.9c0-0.3,0-0.6,0.1-0.9c0-0.2,0.1-0.4,0.2-0.6
	c0.1-0.1,0.3-0.2,0.4-0.3c0.2-0.1,0.4-0.1,0.7-0.1c0.2,0,0.4,0,0.6,0.1c0.2,0,0.3,0.1,0.5,0.2l0.1-0.8c-0.2-0.1-0.4-0.1-0.6-0.2
	c-0.2,0-0.5-0.1-0.7-0.1c-0.4,0-0.8,0.1-1.1,0.2c-0.3,0.1-0.5,0.3-0.7,0.5s-0.3,0.5-0.4,0.9c-0.1,0.3-0.1,0.7-0.1,1.2s0,0.9,0.1,1.2
	c0.1,0.3,0.2,0.6,0.4,0.8c0.2,0.2,0.4,0.4,0.7,0.5c0.3,0.1,0.6,0.1,1,0.1C29.9,24.5,30.3,24.4,30.5,24.3 M34.2,23.6
	c0.2,0,0.4,0,0.5-0.1s0.2-0.2,0.3-0.3c0.1-0.1,0.1-0.3,0.2-0.6c0-0.2,0-0.5,0-0.9c0-0.3,0-0.6,0-0.9c0-0.2-0.1-0.4-0.2-0.6
	c-0.1-0.1-0.2-0.2-0.3-0.3C34.6,20,34.4,20,34.2,20s-0.4,0-0.5,0.1s-0.2,0.2-0.3,0.3c-0.1,0.1-0.1,0.3-0.2,0.6c0,0.2,0,0.5,0,0.9
	c0,0.3,0,0.6,0,0.9c0,0.2,0.1,0.4,0.2,0.6c0.1,0.1,0.2,0.2,0.3,0.3C33.8,23.5,34,23.6,34.2,23.6 M34.2,24.5c-0.4,0-0.7,0-0.9-0.1
	c-0.3-0.1-0.5-0.2-0.7-0.4c-0.2-0.2-0.3-0.5-0.4-0.8c-0.1-0.3-0.1-0.8-0.1-1.3s0-1,0.1-1.3s0.2-0.6,0.4-0.8c0.2-0.2,0.4-0.4,0.7-0.4
	c0.3-0.1,0.6-0.1,0.9-0.1c0.4,0,0.7,0,0.9,0.1c0.3,0.1,0.5,0.2,0.7,0.4c0.2,0.2,0.3,0.5,0.4,0.8c0.1,0.3,0.1,0.8,0.1,1.3
	s0,1-0.1,1.3S36,23.8,35.8,24c-0.2,0.2-0.4,0.3-0.7,0.4C34.9,24.4,34.6,24.5,34.2,24.5 M40.4,24.4v-0.9H38l2.4-3.5v-0.9H37V20h2.2
	l-2.3,3.4v0.9h3.5V24.4z M44.1,21.7c0-0.3,0-0.6-0.1-0.8c0-0.2-0.1-0.4-0.2-0.5c-0.1-0.1-0.2-0.2-0.4-0.3c-0.1,0-0.3-0.1-0.5-0.1
	h-0.7v3.4h0.7c0.2,0,0.4,0,0.5-0.1c0.1,0,0.3-0.1,0.4-0.3c0.1-0.1,0.2-0.3,0.2-0.5C44.1,22.4,44.1,22.1,44.1,21.7 M45.1,21.7
	c0,0.5,0,0.9-0.1,1.2c-0.1,0.3-0.2,0.6-0.4,0.8c-0.2,0.2-0.4,0.4-0.7,0.5s-0.6,0.1-1,0.1h-1.7v-5.2h1.7c0.4,0,0.8,0,1.1,0.1
	s0.5,0.2,0.7,0.4c0.2,0.2,0.3,0.5,0.4,0.8C45.1,20.9,45.1,21.3,45.1,21.7 M47,22.4h1.3l-0.6-2.3l0,0L47,22.4z M48.5,23.3h-1.8
	l-0.3,1.1h-1.1l1.6-5.2h1.4l1.6,5.2h-1.1L48.5,23.3z M53.1,20.7c0-0.3-0.1-0.5-0.2-0.6C52.8,20,52.5,20,52.2,20h-0.7v1.5h0.7
	c0.2,0,0.3,0,0.4,0c0.1,0,0.2-0.1,0.3-0.1c0.1-0.1,0.1-0.1,0.1-0.2C53.1,21,53.1,20.9,53.1,20.7 M54.1,20.7c0,0.4-0.1,0.7-0.2,0.9
	c-0.1,0.2-0.3,0.4-0.6,0.5l1.1,2.2h-1.2l-1-2h-0.8v2h-1v-5.2h1.8c0.4,0,0.6,0,0.9,0.1c0.2,0.1,0.4,0.2,0.6,0.3
	c0.1,0.1,0.2,0.3,0.3,0.5C54.1,20.2,54.1,20.5,54.1,20.7 M58.3,22.9c0-0.2,0-0.4-0.1-0.6S58.1,22,58,21.9c-0.1-0.1-0.3-0.2-0.4-0.3
	c-0.2-0.1-0.4-0.2-0.7-0.2c-0.2,0-0.3-0.1-0.4-0.1c-0.1,0-0.2-0.1-0.3-0.2S56.1,21,56,20.9c0-0.1-0.1-0.2-0.1-0.3
	c0-0.1,0-0.2,0.1-0.3c0-0.1,0.1-0.1,0.2-0.2c0.1,0,0.1-0.1,0.2-0.1c0.1,0,0.2,0,0.3,0c0.2,0,0.4,0,0.6,0.1c0.2,0,0.4,0.1,0.6,0.2
	l0.1-0.8c-0.2-0.1-0.5-0.2-0.7-0.2s-0.5-0.1-0.7-0.1c-0.6,0-1,0.1-1.3,0.3c-0.3,0.2-0.5,0.6-0.5,1.2c0,0.3,0,0.5,0.1,0.6
	c0.1,0.2,0.2,0.3,0.3,0.4s0.3,0.2,0.5,0.3c0.2,0.1,0.4,0.2,0.6,0.2c0.2,0,0.3,0.1,0.4,0.1c0.1,0,0.2,0.1,0.3,0.2s0.1,0.1,0.1,0.2
	s0,0.2,0,0.3c0,0.1,0,0.2-0.1,0.3c0,0.1-0.1,0.2-0.2,0.2c-0.1,0-0.2,0.1-0.3,0.1s-0.2,0-0.3,0c-0.2,0-0.5,0-0.7-0.1
	c-0.2,0-0.5-0.1-0.7-0.2l-0.2,0.9c0.2,0.1,0.4,0.1,0.7,0.2c0.2,0,0.5,0.1,0.8,0.1s0.6,0,0.9-0.1c0.2-0.1,0.4-0.2,0.6-0.3
	c0.2-0.1,0.3-0.3,0.3-0.5C58.3,23.4,58.3,23.1,58.3,22.9 M62.3,20v-0.9h-3.7V20H60v4.3h1V20H62.3z M67,19.2h-1l-1.1,4.3l0,0
	l-1.1-4.3h-1.1l1.4,5.2h1.5L67,19.2z M69.4,23.6c0.2,0,0.4,0,0.5-0.1s0.2-0.2,0.3-0.3c0.1-0.1,0.1-0.3,0.2-0.6c0-0.2,0-0.5,0-0.9
	c0-0.3,0-0.6,0-0.9c0-0.2-0.1-0.4-0.2-0.6c-0.1-0.1-0.2-0.2-0.3-0.3C69.8,20,69.6,20,69.4,20s-0.4,0-0.5,0.1s-0.2,0.2-0.3,0.3
	c-0.1,0.1-0.1,0.3-0.2,0.6c0,0.2,0,0.5,0,0.9c0,0.3,0,0.6,0,0.9c0,0.2,0.1,0.4,0.2,0.6c0.1,0.1,0.2,0.2,0.3,0.3
	C69,23.5,69.2,23.6,69.4,23.6 M69.4,24.5c-0.4,0-0.7,0-0.9-0.1c-0.3-0.1-0.5-0.2-0.7-0.4c-0.2-0.2-0.3-0.5-0.4-0.8s-0.1-0.8-0.1-1.3
	s0-1,0.1-1.3s0.2-0.6,0.4-0.8c0.2-0.2,0.4-0.4,0.7-0.4c0.3-0.1,0.6-0.1,0.9-0.1c0.4,0,0.7,0,0.9,0.1c0.3,0.1,0.5,0.2,0.7,0.4
	c0.2,0.2,0.3,0.5,0.4,0.8s0.1,0.8,0.1,1.3s0,1-0.1,1.3S71.2,23.8,71,24c-0.2,0.2-0.4,0.3-0.7,0.4C70.1,24.4,69.8,24.5,69.4,24.5
	 M74,24.4h1v-5.2h-1V24.4z M78.8,24.4h1.3v-5.2h-0.9v4l0,0l-1.8-4h-1.3v5.2H77v-3.9l0,0L78.8,24.4z M85.5,20.8c0-0.1,0-0.3,0-0.4
	s-0.1-0.2-0.1-0.2c-0.1-0.1-0.2-0.1-0.3-0.1c-0.1,0-0.3,0-0.4,0H84v1.5h0.7c0.2,0,0.3,0,0.4,0s0.2-0.1,0.3-0.1
	c0.1-0.1,0.1-0.1,0.1-0.2C85.5,21,85.5,20.9,85.5,20.8 M86.5,20.7c0,0.3,0,0.5-0.1,0.7s-0.2,0.4-0.3,0.5c-0.1,0.1-0.3,0.2-0.6,0.3
	c-0.2,0.1-0.5,0.1-0.9,0.1h-0.8v1.9h-1V19h1.8c0.3,0,0.6,0,0.9,0.1c0.2,0.1,0.4,0.2,0.6,0.3c0.1,0.1,0.2,0.3,0.3,0.5
	C86.5,20.3,86.5,20.5,86.5,20.7 M89.8,20.7c0-0.3-0.1-0.5-0.2-0.6S89.2,20,88.9,20h-0.7v1.5h0.7c0.2,0,0.3,0,0.4,0s0.2-0.1,0.3-0.1
	c0.1-0.1,0.1-0.1,0.1-0.2C89.8,21,89.8,20.9,89.8,20.7 M90.8,20.7c0,0.4-0.1,0.7-0.2,0.9c-0.1,0.2-0.3,0.4-0.6,0.5l1.1,2.2H90l-1-2
	h-0.8v2h-1v-5.2H89c0.4,0,0.6,0,0.9,0.1c0.2,0.1,0.4,0.2,0.6,0.3c0.1,0.1,0.2,0.3,0.3,0.5C90.8,20.2,90.8,20.5,90.8,20.7 M95.1,24.4
	v-0.9h-2.3v-1.3h2v-0.9h-2V20h2.3v-0.9h-3.3v5.2h3.3V24.4z M99.9,24.4v-5.2h-1v2.1H97v-2.1h-1v5.2h1v-2.2h1.9v2.2
	C98.9,24.4,99.9,24.4,99.9,24.4z M103.6,20.7c0-0.3-0.1-0.5-0.2-0.6S103,20,102.7,20H102v1.5h0.7c0.2,0,0.3,0,0.4,0s0.2-0.1,0.3-0.1
	c0.1-0.1,0.1-0.1,0.1-0.2C103.6,21,103.6,20.9,103.6,20.7 M104.7,20.7c0,0.4-0.1,0.7-0.2,0.9c-0.1,0.2-0.3,0.4-0.6,0.5l1.1,2.2h-1.2
	l-1-2H102v2h-1v-5.2h1.8c0.4,0,0.6,0,0.9,0.1c0.2,0.1,0.4,0.2,0.6,0.3c0.1,0.1,0.2,0.3,0.3,0.5C104.6,20.2,104.7,20.5,104.7,20.7
	 M106.8,22.4h1.3l-0.6-2.3l0,0L106.8,22.4z M108.3,23.3h-1.8l-0.3,1.1h-1.1l1.6-5.2h1.4l1.6,5.2h-1.1L108.3,23.3z M113,24.4h1.3
	v-5.2h-0.9v4l0,0l-1.8-4h-1.3v5.2h0.9v-3.9l0,0L113,24.4z M117.4,23.6c0.2,0,0.4,0,0.5-0.1s0.2-0.2,0.3-0.3c0.1-0.1,0.1-0.3,0.2-0.6
	c0-0.2,0-0.5,0-0.9c0-0.3,0-0.6,0-0.9c0-0.2-0.1-0.4-0.2-0.6c-0.1-0.1-0.2-0.2-0.3-0.3c-0.1-0.1-0.3-0.1-0.5-0.1s-0.4,0-0.5,0.1
	s-0.2,0.2-0.3,0.3c-0.1,0.1-0.1,0.3-0.2,0.6c0,0.2,0,0.5,0,0.9c0,0.3,0,0.6,0,0.9c0,0.2,0.1,0.4,0.2,0.6c0.1,0.1,0.2,0.2,0.3,0.3
	C117,23.5,117.1,23.6,117.4,23.6 M117.4,24.5c-0.4,0-0.7,0-0.9-0.1c-0.3-0.1-0.5-0.2-0.7-0.4s-0.3-0.5-0.4-0.8s-0.1-0.8-0.1-1.3
	s0-1,0.1-1.3s0.2-0.6,0.4-0.8c0.2-0.2,0.4-0.4,0.7-0.4c0.3-0.1,0.6-0.1,0.9-0.1c0.4,0,0.7,0,0.9,0.1c0.3,0.1,0.5,0.2,0.7,0.4
	c0.2,0.2,0.3,0.5,0.4,0.8s0.1,0.8,0.1,1.3s0,1-0.1,1.3s-0.2,0.6-0.4,0.8c-0.2,0.2-0.4,0.3-0.7,0.4C118,24.4,117.7,24.5,117.4,24.5"
	/>
<path class="st0" d="M13.2,9.3c-0.2,3.7-2.7,6.8-6.4,7.9c-3.5-1-6.2-4.1-6.4-7.9L0,1.7C2.2,0.6,4.3,0,6.9,0c2.3,0,4.6,0.5,6.8,1.7
	L13.2,9.3z M8.3,1.6L7.7,1.5L8,2L7.6,2.5l0.7-0.1L8.5,3l0.2-0.6l0.6,0.1L9,2l0.3-0.5L8.7,1.6L8.5,1.1L8.3,1.6z M6.6,3.8H6l0.4,0.4
	L6,4.7l0.6-0.1l0.3,0.6l0.2-0.6l0.6,0.1L7.3,4.2l0.4-0.4H7.1L6.9,3.3L6.6,3.8z M4.9,1.6L4.3,1.5L4.7,2L4.3,2.5l0.6-0.1L5.2,3
	l0.2-0.6L6,2.5L5.7,2L6,1.5L5.4,1.6L5.2,1.1L4.9,1.6z M8.4,13.1c-0.7,0-0.7,0.4-1.6,0.4c-0.8,0-0.9-0.4-1.6-0.4s-0.7,0.4-1.6,0.4
	c0.8,1,1.9,1.7,3.2,2.2c1.2-0.4,2.3-1.2,3.2-2.2C9.2,13.5,9.2,13.1,8.4,13.1 M10,12.9c0.2,0,0.4-0.1,0.6-0.1
	c0.1-0.2,0.2-0.4,0.3-0.6c-0.3,0.1-0.6,0.2-0.9,0.2c-0.8,0-0.8-0.4-1.6-0.4c-0.7,0-0.8,0.4-1.6,0.4C6.1,12.4,6,12,5.3,12
	c-0.8,0-0.8,0.4-1.6,0.4c-0.4,0-0.7-0.2-0.9-0.3c0.1,0.2,0.2,0.4,0.3,0.6c0.2,0.1,0.4,0.1,0.6,0.1c0.8,0,0.8-0.4,1.6-0.4
	c0.7,0,0.8,0.4,1.6,0.4s0.8-0.4,1.6-0.4C9.2,12.4,9.2,12.9,10,12.9 M5.5,8.8l-1-1.3l-2.3,3.1c0.2,0.8,0.6,1.2,1.5,1.2
	c0.7,0,0.8-0.4,1.6-0.4s0.9,0.4,1.6,0.4s0.8-0.4,1.6-0.4s0.9,0.4,1.6,0.4c1,0,1.4-0.5,1.5-1.2L9.2,7.5l-1,1.3L6.9,6L5.5,8.8z
	 M12.7,1.8l-0.5,7.5c-0.2,3.1-2.2,5.9-5.4,6.9c-3-1-5.2-3.6-5.4-6.9L1,1.8C0.8,1.8,0.6,1.9,0.5,2L1,9.3c0.2,3.5,2.6,6.4,5.9,7.4
	c3.2-1,5.6-3.9,5.9-7.4L13.2,2C13,1.9,12.9,1.8,12.7,1.8"/>
</svg>
